<svg width="24" height="24" viewBox="0 0 24 24" fill="none" xmlns="http://www.w3.org/2000/svg">
<path d="M9.52539 6.77199C10.8922 5.57601 13.1083 5.57601 14.4751 6.77199C15.842 7.96797 15.842 9.90703 14.4751 11.103C14.2372 11.3112 13.9736 11.4831 13.6932 11.6188C12.8232 12.0398 12.0003 12.7835 12.0003 13.75V14.625M22.5 12C22.5 17.799 17.799 22.5 12 22.5C6.20101 22.5 1.5 17.799 1.5 12C1.5 6.20101 6.20101 1.5 12 1.5C17.799 1.5 22.5 6.20101 22.5 12ZM12 18.125H12.0088V18.1338H12V18.125Z" stroke="#04001A" stroke-width="1.75" stroke-linecap="round" stroke-linejoin="round"/>
</svg>
