<svg width="26" height="23" viewBox="0 0 26 23" fill="none" xmlns="http://www.w3.org/2000/svg">
<path d="M16.5 19.8155C17.4718 20.0983 18.4994 20.25 19.5624 20.25C21.2877 20.25 22.9196 19.8506 24.3708 19.1391C24.3736 19.0723 24.3749 19.005 24.3749 18.9375C24.3749 16.2796 22.2203 14.125 19.5624 14.125C17.9081 14.125 16.4487 14.9598 15.5825 16.2311M16.5 19.8155V19.8125C16.5 18.5141 16.1673 17.2934 15.5825 16.2311M16.5 19.8155C16.5 19.8571 16.4996 19.8986 16.4989 19.94C14.3269 21.2478 11.7826 22 9.0625 22C6.34245 22 3.79808 21.2478 1.62607 19.94C1.62536 19.8976 1.625 19.8551 1.625 19.8125C1.625 15.7049 4.95488 12.375 9.0625 12.375C11.8717 12.375 14.3172 13.9325 15.5825 16.2311M13 4.9375C13 7.11212 11.2371 8.875 9.0625 8.875C6.88788 8.875 5.125 7.11212 5.125 4.9375C5.125 2.76288 6.88788 1 9.0625 1C11.2371 1 13 2.76288 13 4.9375ZM22.625 7.5625C22.625 9.25387 21.2539 10.625 19.5625 10.625C17.8711 10.625 16.5 9.25387 16.5 7.5625C16.5 5.87113 17.8711 4.5 19.5625 4.5C21.2539 4.5 22.625 5.87113 22.625 7.5625Z" stroke="#04001A" stroke-width="1.75" stroke-linecap="round" stroke-linejoin="round"/>
</svg>
