<svg width="26" height="23" viewBox="0 0 26 23" fill="none" xmlns="http://www.w3.org/2000/svg">
<path d="M3.96946 8.83775C3.65161 11.2691 3.45853 13.7397 3.39686 16.243C6.77551 17.6536 9.98899 19.3808 13.0002 21.3875C16.0115 19.3808 19.225 17.6536 22.6036 16.243C22.542 13.7398 22.3489 11.2692 22.031 8.8378M3.96946 8.83775C2.9478 8.49435 1.91375 8.17792 0.868164 7.88932C4.65445 5.23534 8.71556 2.94673 13.0003 1.07465C17.285 2.94673 21.3462 5.23536 25.1324 7.88933C24.0868 8.17794 23.0527 8.49438 22.031 8.8378M3.96946 8.83775C7.10457 9.89155 10.123 11.1994 13.0003 12.7367C15.8776 11.1994 18.896 9.89158 22.031 8.8378M6.87524 14.5C7.35849 14.5 7.75024 14.1083 7.75024 13.625C7.75024 13.1418 7.35849 12.75 6.87524 12.75C6.392 12.75 6.00024 13.1418 6.00024 13.625C6.00024 14.1083 6.392 14.5 6.87524 14.5ZM6.87524 14.5V10.2119C8.84863 8.98574 10.8928 7.86277 13.0002 6.85051M4.82499 20.3247C6.19182 18.9579 6.87524 17.1665 6.87524 15.375V13.625" stroke="#04001A" stroke-width="1.75" stroke-linecap="round" stroke-linejoin="round"/>
</svg>
