<svg width="22" height="26" viewBox="0 0 22 26" fill="none" xmlns="http://www.w3.org/2000/svg">
<path d="M7.5 13H11.875M7.5 16.5H11.875M7.5 20H11.875M15.375 20.875H18C19.4497 20.875 20.625 19.6997 20.625 18.25V6.12625C20.625 4.80211 19.6392 3.67851 18.3196 3.56899C17.8841 3.53284 17.4472 3.50168 17.0089 3.47556M10.2411 3.47556C10.1656 3.72035 10.125 3.98043 10.125 4.25C10.125 4.73325 10.5168 5.125 11 5.125H16.25C16.7333 5.125 17.125 4.73325 17.125 4.25C17.125 3.98043 17.0844 3.72035 17.0089 3.47556M10.2411 3.47556C10.5715 2.40383 11.5698 1.625 12.75 1.625H14.5C15.6802 1.625 16.6785 2.40383 17.0089 3.47556M10.2411 3.47556C9.80284 3.50168 9.36593 3.53284 8.93043 3.56899C7.61082 3.67851 6.625 4.80211 6.625 6.12626V8.625M6.625 8.625H2.6875C1.96263 8.625 1.375 9.21263 1.375 9.9375V23.0625C1.375 23.7874 1.96263 24.375 2.6875 24.375H14.0625C14.7874 24.375 15.375 23.7874 15.375 23.0625V9.9375C15.375 9.21263 14.7874 8.625 14.0625 8.625H6.625ZM4.875 13H4.88375V13.0088H4.875V13ZM4.875 16.5H4.88375V16.5088H4.875V16.5ZM4.875 20H4.88375V20.0088H4.875V20Z" stroke="#04001A" stroke-width="1.75" stroke-linecap="round" stroke-linejoin="round"/>
</svg>
