<svg width="22" height="24" viewBox="0 0 22 24" fill="none" xmlns="http://www.w3.org/2000/svg">
<path d="M8.19281 2.59679C8.29829 1.96392 8.84586 1.50006 9.48746 1.50006H12.5137C13.1554 1.50006 13.7029 1.96392 13.8084 2.59679L14.0575 4.09134C14.1302 4.52773 14.4218 4.89123 14.8089 5.10548C14.8954 5.15338 14.981 5.20287 15.0655 5.25389C15.4447 5.48288 15.9059 5.55407 16.3207 5.39866L17.7404 4.8668C18.3412 4.64171 19.0167 4.88399 19.3375 5.43963L20.8507 8.06048C21.1715 8.61612 21.0436 9.32225 20.5482 9.73003L19.3765 10.6947C19.0352 10.9756 18.866 11.4094 18.8742 11.8513C18.8751 11.9008 18.8756 11.9504 18.8756 12.0001C18.8756 12.0497 18.8751 12.0993 18.8742 12.1488C18.866 12.5907 19.0352 13.0245 19.3765 13.3055L20.5482 14.2701C21.0436 14.6779 21.1715 15.384 20.8507 15.9396L19.3375 18.5605C19.0167 19.1161 18.3412 19.3584 17.7404 19.1333L16.3208 18.6014C15.9059 18.446 15.4447 18.5172 15.0655 18.7462C14.981 18.7973 14.8955 18.8467 14.8089 18.8946C14.4218 19.1089 14.1302 19.4724 14.0575 19.9088L13.8084 21.4033C13.7029 22.0362 13.1553 22.5001 12.5137 22.5001H9.48746C8.84586 22.5001 8.29829 22.0362 8.19281 21.4033L7.94372 19.9088C7.87099 19.4724 7.57936 19.1089 7.1923 18.8946C7.10576 18.8467 7.02022 18.7973 6.93571 18.7462C6.55651 18.5172 6.09529 18.4461 5.68046 18.6015L4.26078 19.1333C3.65996 19.3584 2.98447 19.1161 2.66367 18.5605L1.15052 15.9396C0.829723 15.384 0.957653 14.6779 1.453 14.2701L2.62474 13.3055C2.966 13.0245 3.13516 12.5907 3.12698 12.1488C3.12606 12.0993 3.1256 12.0497 3.1256 12.0001C3.1256 11.9504 3.12606 11.9008 3.12698 11.8514C3.13516 11.4094 2.966 10.9756 2.62474 10.6947L1.453 9.73005C0.957652 9.32227 0.829723 8.61614 1.15052 8.06049L2.66367 5.43965C2.98447 4.884 3.65996 4.64173 4.26078 4.86682L5.68045 5.39867C6.09527 5.55408 6.55649 5.48289 6.9357 5.2539C7.02021 5.20287 7.10575 5.15339 7.1923 5.10548C7.57936 4.89123 7.87099 4.52773 7.94372 4.09134L8.19281 2.59679Z" stroke="#04001A" stroke-width="1.75" stroke-linecap="round" stroke-linejoin="round"/>
<path d="M14.5003 12C14.5003 13.933 12.9333 15.5 11.0003 15.5C9.06734 15.5 7.50033 13.933 7.50033 12C7.50033 10.067 9.06734 8.49997 11.0003 8.49997C12.9333 8.49997 14.5003 10.067 14.5003 12Z" stroke="#04001A" stroke-width="1.75" stroke-linecap="round" stroke-linejoin="round"/>
</svg>
