<svg width="44" height="46" viewBox="0 0 44 46" fill="none" xmlns="http://www.w3.org/2000/svg">
<path d="M16.3856 4.19357C16.5966 2.92783 17.6917 2.00012 18.9749 2.00012H25.0275C26.3107 2.00012 27.4058 2.92783 27.6168 4.19358L28.115 7.18269C28.2604 8.05546 28.8437 8.78245 29.6178 9.21096C29.7909 9.30677 29.962 9.40573 30.131 9.50779C30.8894 9.96575 31.8118 10.1081 32.6415 9.79732L35.4808 8.7336C36.6825 8.28342 38.0335 8.76797 38.6751 9.87926L41.7014 15.121C42.343 16.2322 42.0871 17.6445 41.0964 18.4601L38.7529 20.3893C38.0704 20.9512 37.7321 21.8188 37.7485 22.7027C37.7503 22.8016 37.7512 22.9008 37.7512 23.0001C37.7512 23.0995 37.7503 23.1986 37.7485 23.2975C37.7321 24.1814 38.0704 25.049 38.7529 25.6109L41.0964 27.5401C42.0871 28.3557 42.343 29.768 41.7014 30.8793L38.6751 36.121C38.0335 37.2322 36.6825 37.7168 35.4808 37.2666L32.6415 36.2029C31.8119 35.8921 30.8894 36.0345 30.131 36.4924C29.962 36.5945 29.7909 36.6935 29.6178 36.7893C28.8437 37.2178 28.2604 37.9448 28.115 38.8176L27.6168 41.8067C27.4058 43.0724 26.3107 44.0001 25.0275 44.0001H18.9749C17.6917 44.0001 16.5966 43.0724 16.3856 41.8067L15.8874 38.8176C15.742 37.9448 15.1587 37.2178 14.3846 36.7893C14.2115 36.6935 14.0404 36.5945 13.8714 36.4925C13.113 36.0345 12.1906 35.8921 11.3609 36.2029L8.52157 37.2666C7.31992 37.7168 5.96894 37.2323 5.32734 36.121L2.30105 30.8793C1.65945 29.768 1.91531 28.3558 2.90599 27.5402L5.24948 25.6109C5.932 25.0491 6.27033 24.1814 6.25396 23.2976C6.25213 23.1986 6.25121 23.0995 6.25121 23.0001C6.25121 22.9008 6.25213 22.8016 6.25396 22.7027C6.27033 21.8188 5.932 20.9512 5.24948 20.3893L2.90599 18.4601C1.9153 17.6445 1.65945 16.2323 2.30105 15.121L5.32734 9.8793C5.96894 8.76801 7.31992 8.28346 8.52157 8.73364L11.3609 9.79735C12.1905 10.1082 13.113 9.96577 13.8714 9.50781C14.0404 9.40575 14.2115 9.30677 14.3846 9.21096C15.1587 8.78245 15.742 8.05546 15.8874 7.18269L16.3856 4.19357Z" stroke="white" stroke-width="3.5" stroke-linecap="round" stroke-linejoin="round"/>
<path d="M29.0007 22.9999C29.0007 26.8659 25.8667 29.9999 22.0007 29.9999C18.1347 29.9999 15.0007 26.8659 15.0007 22.9999C15.0007 19.1339 18.1347 15.9999 22.0007 15.9999C25.8667 15.9999 29.0007 19.1339 29.0007 22.9999Z" stroke="white" stroke-width="3.5" stroke-linecap="round" stroke-linejoin="round"/>
</svg>
